<svg width="32" height="32" viewBox="0 0 32 32" fill="none" xmlns="http://www.w3.org/2000/svg">
<path d="M15.9992 0C7.17884 0.00159992 0.00159992 7.17884 0 16.0008C0 24.8228 7.17724 32 16.0008 32C24.8228 31.9984 32 24.8212 32 16.0008C32 7.17884 24.8228 0.00159992 15.9992 0ZM16.0008 28.8002C8.94195 28.8002 3.19984 23.058 3.19984 16.0008C3.20144 8.94355 8.94355 3.20144 15.9992 3.19984C23.058 3.20144 28.8002 8.94355 28.8002 16.0008C28.8002 23.0564 23.058 28.7986 16.0008 28.8002Z" fill="#C9C9C9"/>
<path d="M16.02 9.59302L9.6123 16.0007L16.02 22.4068V17.6006H22.4101V14.4008H16.02V9.59302Z" fill="#C9C9C9"/>
</svg>
