<svg width="32" height="32" viewBox="0 0 32 32" fill="none" xmlns="http://www.w3.org/2000/svg">
<path d="M15.9992 32C7.17884 31.9984 0.00159992 24.8212 0 15.9992C0 7.17724 7.17724 0 16.0008 0C24.8228 0.00160027 32 7.17884 32 15.9992C32 24.8212 24.8228 31.9984 15.9992 32ZM16.0008 3.19984C8.94195 3.19984 3.19984 8.94195 3.19984 15.9992C3.20144 23.0564 8.94355 28.7986 15.9992 28.8002C23.058 28.7986 28.8002 23.0564 28.8002 15.9992C28.8002 8.94355 23.058 3.20144 16.0008 3.19984Z" fill="url(#paint0_linear)"/>
<path d="M16.02 22.407L9.6123 15.9993L16.02 9.59322V14.3994L22.4101 14.3994V17.5992H16.02V22.407Z" fill="url(#paint1_linear)"/>
<defs>
<linearGradient id="paint0_linear" x1="-0.833334" y1="25.9048" x2="31.814" y2="24.8633" gradientUnits="userSpaceOnUse">
<stop stop-color="#93E08C"/>
<stop offset="1" stop-color="#78CEBF"/>
</linearGradient>
<linearGradient id="paint1_linear" x1="9.27903" y1="19.9663" x2="22.3357" y2="19.5503" gradientUnits="userSpaceOnUse">
<stop stop-color="#93E08C"/>
<stop offset="1" stop-color="#78CEBF"/>
</linearGradient>
</defs>
</svg>
